<?xml version="1.0" encoding="UTF-8"?>
<svg version="1.1" xmlns="http://www.w3.org/2000/svg" width="512" height="512">
<path d="M0 0 C4.16974984 3.69554954 6.7105046 7.65305364 9.18786621 12.57330322 C9.60541341 13.38437098 10.02296062 14.19543873 10.45316076 15.0310843 C11.98175257 18.01428673 13.49179229 21.00644064 15 24 C15.61468169 25.21620805 16.22951105 26.43234149 16.84446907 27.64840984 C21.8183952 37.49058042 26.75484648 47.35142555 31.68724823 57.2144537 C33.93249193 61.70306838 36.18000871 66.1905448 38.42718506 70.67819214 C43.32132537 80.45298835 48.21251384 90.22925965 53.10302925 100.00586987 C56.15905703 106.11515092 59.21567049 112.22413882 62.27238464 118.33307648 C70.74619204 135.2685206 79.21925486 152.20433676 87.68955231 169.14153671 C88.22973845 170.22168942 88.76992459 171.30184214 89.32648 172.41472675 C90.13857777 174.03859486 90.13857777 174.03859486 90.96708155 175.69526839 C92.06399062 177.88864309 93.16090094 180.08201717 94.2578125 182.27539062 C95.07395272 183.90733893 95.07395272 183.90733893 95.90658063 185.57225588 C104.7464283 203.24799294 113.59168744 220.92101607 122.43924457 238.59289524 C131.53615051 256.76301033 140.62856728 274.93536588 149.71646261 293.1099894 C154.81408188 303.30431121 159.91363157 313.49765706 165.0181427 323.68852997 C169.35773621 332.35233995 173.69323642 341.01818252 178.0233708 349.68672428 C180.23224406 354.10838327 182.44305723 358.52904396 184.65909576 362.94711685 C186.68709572 366.99041711 188.70954641 371.0364422 190.7275998 375.08471563 C191.4587466 376.5489728 192.19192631 378.01221699 192.92733365 379.47433898 C193.92653957 381.46168336 194.91826913 383.45258938 195.90824127 385.44454575 C196.46100943 386.54948498 197.01377759 387.6544242 197.5832963 388.79284644 C200.74645292 395.95364444 202.31592208 402.54361383 199.8125 410.125 C197.30041264 416.20566006 192.58002762 419.74498389 187 423 C184.5625 423.75 184.5625 423.75 182 424 C180.989375 424.12375 179.97875 424.2475 178.9375 424.375 C168.92439942 423.42137137 159.13160415 417.24012 150.1875 412.875 C148.94381601 412.27105155 147.69999631 411.66738249 146.45605469 411.06396484 C143.03810415 409.40470493 139.62236332 407.74094509 136.20721436 406.07592773 C133.93289189 404.96728751 131.65815433 403.85950316 129.38330078 402.75195312 C122.82728864 399.55997937 116.27167059 396.36720046 109.7175293 393.17138672 C99.3181587 388.10083691 88.91258751 383.04334844 78.5 378 C67.32303164 372.58616661 56.15415672 367.15595495 44.99078369 361.71414185 C37.66122439 358.14132069 30.33084096 354.5701906 23 351 C22.20613892 350.61338196 21.41227783 350.22676392 20.59436035 349.82843018 C15.98637531 347.58468198 11.37747559 345.34282961 6.76733398 343.10351562 C5.36131254 342.42029335 3.95554227 341.73655388 2.55004883 341.05224609 C1.88706787 340.72949707 1.22408691 340.40674805 0.54101562 340.07421875 C-0.09939667 339.7624469 -0.73980896 339.45067505 -1.39962769 339.12945557 C-3.20303717 338.25672533 -5.01278514 337.39713013 -6.82275391 336.53808594 C-8.78155379 335.58984256 -10.72192987 334.60085157 -12.62646484 333.54785156 C-16.77564771 331.35013505 -18.15197555 330.74054283 -22.8046875 332.1640625 C-24.18020175 332.95254221 -25.53581972 333.77627397 -26.875 334.625 C-28.53906852 335.58654176 -30.20599265 336.54315039 -31.875 337.49609375 C-32.82375 338.04765137 -33.7725 338.59920898 -34.75 339.16748047 C-40.60589301 342.46933841 -46.61343609 345.47964817 -52.60333252 348.52947998 C-56.43562054 350.4830521 -60.26040636 352.45120779 -64.0859375 354.41796875 C-64.84458099 354.80764832 -65.60322449 355.19732788 -66.38485718 355.59881592 C-73.43058446 359.21839715 -80.46632813 362.85705256 -87.5 366.5 C-98.15714853 372.01858889 -108.8257977 377.51447291 -119.5 383 C-129.70515014 388.24475681 -139.90724736 393.4952224 -150.09783936 398.76821899 C-151.85867331 399.67905461 -153.62000823 400.58892153 -155.38134766 401.4987793 C-160.92016239 404.36185495 -166.4536313 407.23403241 -171.97409058 410.13230896 C-174.6322203 411.52704126 -177.29283365 412.91699711 -179.95367432 414.30654907 C-181.21709433 414.9680395 -182.47930052 415.63185441 -183.74017334 416.29818726 C-185.48775323 417.22159322 -187.23989384 418.13635194 -188.9921875 419.05078125 C-189.98589355 419.57325439 -190.97959961 420.09572754 -192.00341797 420.6340332 C-199.16873934 423.90028488 -205.35377109 424.82308403 -213 423 C-219.41734039 420.08924287 -223.15974811 416.39056676 -226 410 C-228.90658834 402.24909776 -225.96848132 395.2061189 -223 388 C-220.54646679 382.67906002 -217.92977131 377.44494327 -215.30152893 372.20864868 C-214.51330008 370.62729553 -213.72559047 369.04568348 -212.93835205 367.46383703 C-210.78472277 363.14024049 -208.62367542 358.82038964 -206.46132171 354.50115132 C-204.12638241 349.83395031 -201.79833897 345.16331098 -199.46936035 340.49313354 C-194.91076243 331.35491614 -190.34559109 322.21999815 -185.77786893 313.08633859 C-182.0662053 305.66431999 -178.35659088 298.24128073 -174.64842033 290.81751633 C-173.57951528 288.67760702 -172.51060959 286.53769803 -171.44170326 284.39778936 C-170.90966799 283.33267528 -170.37763271 282.26756121 -169.82947516 281.17017095 C-159.77533139 261.04299611 -149.71322313 240.91981082 -139.64879387 220.7977777 C-130.43864054 202.38305208 -121.23907382 183.96306092 -112.04438902 165.54060753 C-102.60152431 146.62116529 -93.15125818 127.70543707 -83.69305557 108.79365766 C-78.38368559 98.17716395 -73.07733177 87.55918787 -67.7788105 76.93727493 C-63.27050901 67.8996907 -58.75529281 58.86560365 -54.23102397 49.83600147 C-51.92258722 45.22830301 -49.61742203 40.6190431 -47.32089806 36.00539398 C-45.2192754 31.78350457 -43.10850333 27.56632541 -40.99029516 23.35273401 C-40.22506054 21.82646681 -39.46321049 20.29849707 -38.70507235 18.76869245 C-37.67487156 16.69116564 -36.63255435 14.62017217 -35.58698368 12.55034828 C-35.01083791 11.39778435 -34.43469214 10.24522043 -33.8410874 9.05773032 C-31.89837792 5.83122317 -29.76430869 3.54097114 -27 1 C-26.401875 0.443125 -25.80375 -0.11375 -25.1875 -0.6875 C-17.24765999 -5.45140401 -7.69906888 -4.89940747 0 0 Z M-15 70 C-15.54407501 71.08815002 -16.08815002 72.17630005 -16.64871216 73.29742432 C-54.43247477 148.86494954 -92.21623739 224.43247477 -130 300 C-130.31398459 300.62797202 -130.62796919 301.25594404 -130.95146847 301.90294552 C-132.39298222 304.78598322 -133.83452306 307.66900737 -135.27612305 310.55200195 C-136.46013821 312.92019997 -137.64392316 315.28851176 -138.82739258 317.65698242 C-141.40361587 322.81213933 -143.98058695 327.96685399 -146.57421875 333.11328125 C-146.93966797 333.83966797 -147.30511719 334.56605469 -147.68164062 335.31445312 C-148.60266613 337.14398534 -149.52583406 338.97243861 -150.44921875 340.80078125 C-152.07912966 344.1632423 -153.55470109 347.55486151 -155 351 C-149.87185321 349.47101413 -145.33306287 347.26252707 -140.60546875 344.80859375 C-139.7940593 344.39174316 -138.98264984 343.97489258 -138.14665222 343.54541016 C-135.49150695 342.18013272 -132.83951432 340.80884784 -130.1875 339.4375 C-128.32718478 338.47951235 -126.46666809 337.52191584 -124.60595703 336.56469727 C-119.9320437 334.15910027 -115.26058799 331.74877544 -110.58990479 329.33691406 C-106.83599162 327.39913653 -103.0802129 325.46499001 -99.32421875 323.53125 C-97.98363381 322.84091872 -96.64305752 322.15057065 -95.30249023 321.46020508 C-94.32758133 320.95815048 -94.32758133 320.95815048 -93.33297729 320.44595337 C-90.70797192 319.09394815 -88.08322267 317.74144622 -85.45851135 316.38887024 C-83.43138041 315.34426348 -81.40416916 314.29981269 -79.37695312 313.25537109 C-76.23993074 311.63909757 -73.10330687 310.02205277 -69.96679688 308.40478516 C-65.55251591 306.12905651 -61.13670456 303.85631841 -56.72003174 301.5852356 C-55.01508152 300.70797842 -53.31059881 299.82981194 -51.60662842 298.95065308 C-28.36747088 286.96213454 -28.36747088 286.96213454 -18 284 C-16.68 213.38 -15.36 142.76 -14 70 C-14.33 70 -14.66 70 -15 70 Z " fill="#3f462e" transform="translate(269,46)"/>
</svg>
